<svg xmlns="http://www.w3.org/2000/svg" viewBox="0 0 71.75 85"><defs><style>.cls-1{fill:#010101;}</style></defs><g id="Layer_2" data-name="Layer 2"><g id="Layer_2-2" data-name="Layer 2"><path class="cls-1" d="M2,75.08l20.81,9.61a3.36,3.36,0,0,0,2.81-6.1h0L11.7,72.19c19.14-4.85,32.37-12.89,41.37-21.9A63.35,63.35,0,0,0,70.31,18.83,54.88,54.88,0,0,0,71.64,3,3.36,3.36,0,0,0,68,0a3.4,3.4,0,0,0-2,1A3.37,3.37,0,0,0,65,3.7h0v0a50,50,0,0,1-1.39,14.44A56.53,56.53,0,0,1,48.33,45.54C40.21,53.65,28.13,61.12,9.9,65.72L16.08,52a3.36,3.36,0,0,0-5.43-3.76,3.51,3.51,0,0,0-.69,1L.3,70.65A3.36,3.36,0,0,0,2,75.08Z"/></g></g></svg>